<svg width="25" height="24" viewBox="0 0 25 24" fill="none" xmlns="http://www.w3.org/2000/svg">
<path fill-rule="evenodd" clip-rule="evenodd" d="M12.5 18C15.8137 18 18.5 15.3137 18.5 12C18.5 8.68629 15.8137 6 12.5 6C9.18629 6 6.5 8.68629 6.5 12C6.5 15.3137 9.18629 18 12.5 18Z" fill="#DEDEDD"/>
<path fill-rule="evenodd" clip-rule="evenodd" d="M12.4945 1.5C13.0468 1.5 13.4945 1.94772 13.4945 2.5V3.5C13.4945 4.05228 13.0468 4.5 12.4945 4.5C11.9422 4.5 11.4945 4.05228 11.4945 3.5V2.5C11.4945 1.94772 11.9422 1.5 12.4945 1.5Z" fill="#DEDEDD"/>
<path fill-rule="evenodd" clip-rule="evenodd" d="M12.4945 19.5C13.0468 19.5 13.4945 19.9477 13.4945 20.5V21.4968C13.4945 22.0491 13.0468 22.4968 12.4945 22.4968C11.9422 22.4968 11.4945 22.0491 11.4945 21.4968V20.5C11.4945 19.9477 11.9422 19.5 12.4945 19.5Z" fill="#DEDEDD"/>
<path fill-rule="evenodd" clip-rule="evenodd" d="M1.99609 11.9984C1.99609 11.4461 2.44381 10.9984 2.99609 10.9984H3.99609C4.54838 10.9984 4.99609 11.4461 4.99609 11.9984C4.99609 12.5507 4.54838 12.9984 3.99609 12.9984H2.99609C2.44381 12.9984 1.99609 12.5507 1.99609 11.9984Z" fill="#DEDEDD"/>
<path fill-rule="evenodd" clip-rule="evenodd" d="M19.9961 11.9984C19.9961 11.4461 20.4438 10.9984 20.9961 10.9984H21.9929C22.5452 10.9984 22.9929 11.4461 22.9929 11.9984C22.9929 12.5507 22.5452 12.9984 21.9929 12.9984H20.9961C20.4438 12.9984 19.9961 12.5507 19.9961 11.9984Z" fill="#DEDEDD"/>
<path fill-rule="evenodd" clip-rule="evenodd" d="M5.0711 19.4219C4.68057 19.0313 4.68057 18.3982 5.0711 18.0077L5.7782 17.3005C6.16873 16.91 6.80189 16.91 7.19242 17.3005C7.58294 17.6911 7.58294 18.3242 7.19242 18.7148L6.48531 19.4219C6.09479 19.8124 5.46162 19.8124 5.0711 19.4219Z" fill="#DEDEDD"/>
<path fill-rule="evenodd" clip-rule="evenodd" d="M17.799 6.69394C17.4085 6.30342 17.4085 5.67025 17.799 5.27973L18.5038 4.5749C18.8944 4.18438 19.5275 4.18438 19.9181 4.5749C20.3086 4.96543 20.3086 5.59859 19.9181 5.98911L19.2132 6.69394C18.8227 7.08447 18.1895 7.08447 17.799 6.69394Z" fill="#DEDEDD"/>
<path fill-rule="evenodd" clip-rule="evenodd" d="M5.0711 4.5749C5.46162 4.18438 6.09479 4.18438 6.48531 4.5749L7.19242 5.28201C7.58294 5.67253 7.58294 6.3057 7.19242 6.69622C6.80189 7.08675 6.16873 7.08675 5.7782 6.69622L5.0711 5.98911C4.68057 5.59859 4.68057 4.96543 5.0711 4.5749Z" fill="#DEDEDD"/>
<path fill-rule="evenodd" clip-rule="evenodd" d="M17.799 17.3028C18.1895 16.9123 18.8227 16.9123 19.2132 17.3028L19.9181 18.0077C20.3086 18.3982 20.3086 19.0313 19.9181 19.4219C19.5275 19.8124 18.8944 19.8124 18.5038 19.4219L17.799 18.717C17.4085 18.3265 17.4085 17.6933 17.799 17.3028Z" fill="#DEDEDD"/>
</svg>
