<svg width="24" height="24" viewBox="0 0 24 24" fill="none" xmlns="http://www.w3.org/2000/svg">
<path d="M21.6996 9.10068H19.9104C19.2699 9.10068 18.7395 9.55778 18.6295 10.1615C18.3068 10.1249 17.8717 10.0149 17.3853 9.72156C16.3978 9.12513 13.8312 7.81494 12.6481 7.81494C11.5848 7.81494 8.67599 9.84866 8.10401 10.2569L8.05756 10.2935C7.86446 10.4769 7.60047 10.9853 7.98912 11.6062C8.17489 11.9044 8.45844 12.0999 8.78354 12.1562C9.08176 12.2075 9.40686 12.139 9.60974 11.9826C9.80041 11.8408 11.443 10.8973 12.697 11.1002C14.0218 11.3153 15.5545 13.6008 16.3782 14.8303C17.0358 15.8081 17.488 16.3409 18.2457 16.3409C18.4755 16.3409 18.7346 16.292 19.0328 16.1894C19.0328 16.1894 19.0328 16.1918 19.0353 16.1918C19.2675 16.402 19.5681 16.5267 19.9104 16.5267H21.6996C22.4158 16.5267 23 15.9425 23 15.2263V10.4011C23 9.68489 22.4158 9.10068 21.6996 9.10068ZM17.0871 14.3561C15.8478 12.5081 14.3934 10.5135 12.8339 10.2618C11.2206 9.99777 9.31886 11.1295 9.10131 11.3031C9.09887 11.3031 8.8691 11.4057 8.71021 11.154C8.64421 11.0489 8.62222 10.9609 8.63688 10.9217C9.96907 9.97577 12.0688 8.66558 12.6457 8.66558C13.4792 8.66558 15.7109 9.70445 16.9429 10.45C17.5882 10.8411 18.1724 10.9731 18.6026 11.0146V15.2287C18.6026 15.3021 18.6075 15.3681 18.6197 15.4365C18.0428 15.6174 17.8155 15.4438 17.0871 14.3561ZM22.1494 15.2287C22.1494 15.4732 21.9514 15.6785 21.6996 15.6785H19.9104C19.661 15.6785 19.4557 15.4732 19.4557 15.2287V10.4011C19.4557 10.1518 19.661 9.95133 19.9104 9.95133H21.6996C21.949 9.95133 22.1494 10.1493 22.1494 10.4011V15.2287Z" fill="#F5F5F5"/>
<path d="M5.39499 14.7006V10.9631C5.76409 10.8922 6.21875 10.748 6.71007 10.4498C7.0205 10.2616 7.38471 9.99025 7.77093 9.69936C8.50668 9.14694 9.61399 8.31096 10.12 8.39162C10.1737 8.39896 10.2202 8.41851 10.2666 8.48695L10.9608 7.99319C10.7873 7.74875 10.5429 7.5972 10.252 7.55076C9.39399 7.41632 8.31113 8.23274 7.2625 9.01738C6.89339 9.2936 6.54629 9.55515 6.27252 9.71892C5.93275 9.92425 5.62232 10.0342 5.35833 10.0978C5.22633 9.52581 4.71057 9.09805 4.09703 9.09805H2.30774C1.58421 9.10049 1 9.6847 1 10.4009V15.2285C1 15.9447 1.58421 16.529 2.3053 16.529H4.09458C4.69345 16.529 5.20433 16.1183 5.34855 15.5585C5.39988 15.5536 5.45366 15.5585 5.51232 15.5928L5.9572 14.8668C5.76409 14.747 5.57343 14.703 5.39499 14.7006ZM4.54435 15.2285C4.54435 15.473 4.34635 15.6783 4.09458 15.6783H2.3053C2.05597 15.6783 1.85064 15.473 1.85064 15.2285V10.4009C1.85064 10.1516 2.05597 9.95114 2.3053 9.95114H4.09458C4.34391 9.95114 4.54435 10.1491 4.54435 10.4009V15.2285Z" fill="#F5F5F5"/>
<path d="M3.6353 14.3071C3.39086 14.3071 3.19531 14.5051 3.19531 14.7471C3.19531 14.9916 3.39331 15.1871 3.6353 15.1871C3.87729 15.1871 4.07529 14.9891 4.07529 14.7471C4.07529 14.5051 3.87729 14.3071 3.6353 14.3071Z" fill="#F5F5F5"/>
<path d="M20.3619 14.3071C20.1174 14.3071 19.9219 14.5051 19.9219 14.7471C19.9219 14.9916 20.1199 15.1871 20.3619 15.1871C20.6039 15.1871 20.8019 14.9891 20.8019 14.7471C20.8019 14.5051 20.6063 14.3071 20.3619 14.3071Z" fill="#F5F5F5"/>
<path d="M17.0653 16.7909C16.6571 17.0133 16.0387 16.2898 15.8847 16.0698C15.4276 15.1947 14.7138 14.3367 14.5109 14.1021L13.8656 14.6569C14.5476 15.4513 15.4862 16.8153 15.43 17.3604C15.4251 17.4093 15.4129 17.4191 15.4105 17.4215C15.3249 17.4851 15.2491 17.5071 15.1563 17.4924C14.8067 17.4288 14.3692 16.896 14.2127 16.6466C13.9341 16.0918 13.4819 15.4562 12.9123 14.7351L12.2426 15.2631C13.2472 16.5342 13.7238 17.3653 13.6627 17.7393C13.6554 17.7833 13.6432 17.7979 13.6163 17.8151C13.5503 17.8591 13.4867 17.8713 13.411 17.8542C13.103 17.7906 12.7217 17.3384 12.5848 17.1306L12.5677 17.1429C12.5481 17.1086 12.5383 17.0769 12.5163 17.0402C12.3868 16.8251 11.4726 15.6958 11.1964 15.3536L10.5364 15.8913C11.0913 16.5758 11.7121 17.358 11.805 17.5071C12.1179 18.0253 12.047 18.2404 11.8417 18.4017C11.7268 18.4922 11.5679 18.6193 10.8786 18.0497L10.3359 18.7073C10.5926 18.9199 11.0937 19.333 11.6535 19.333C11.8881 19.333 12.1301 19.2597 12.3697 19.0715C12.5188 18.9517 12.6899 18.7635 12.7852 18.5019C12.927 18.585 13.0761 18.6559 13.2374 18.6901C13.3181 18.7073 13.3963 18.7146 13.4745 18.7146C13.6921 18.7146 13.8998 18.651 14.0881 18.5264C14.2518 18.4188 14.3716 18.2697 14.4425 18.0937C14.616 18.2062 14.8043 18.2917 15.0071 18.3284C15.078 18.3406 15.1465 18.3479 15.2149 18.3479C15.4716 18.3479 15.716 18.2624 15.9311 18.0937C16.112 17.9519 16.2244 17.754 16.2636 17.5144C16.464 17.6097 16.6767 17.6733 16.8991 17.6733C17.0995 17.6733 17.3049 17.6244 17.5126 17.512C17.6349 17.4264 17.74 17.3335 17.8255 17.2309L17.1802 16.676C17.1386 16.7249 17.0873 16.7713 17.0653 16.7909Z" fill="#F5F5F5"/>
<path d="M8.40685 17.7489C8.50462 18.1913 8.90061 18.5262 9.37727 18.5262C9.92236 18.5262 10.3721 18.0764 10.3721 17.5313C10.3721 16.9814 9.92236 16.5316 9.37727 16.5316C9.28682 16.5316 9.20127 16.5438 9.11572 16.5707C9.02039 16.1283 8.62195 15.7983 8.15019 15.7983C8.05241 15.7983 7.96197 15.8105 7.87153 15.8447C7.78109 15.3852 7.37777 15.043 6.90111 15.043C6.35113 15.043 5.90625 15.4927 5.90625 16.0427C5.90625 16.5878 6.34868 17.0376 6.90111 17.0376C6.99644 17.0376 7.09422 17.0205 7.17977 16.9911C7.27021 17.4458 7.66865 17.7856 8.15019 17.7856C8.24308 17.7904 8.32863 17.7782 8.40685 17.7489ZM9.80503 17.5338C9.80503 17.766 9.61193 17.9591 9.37971 17.9591C9.14016 17.9591 8.94706 17.766 8.94706 17.5338C8.94706 17.2942 9.14016 17.1011 9.37971 17.1011C9.61193 17.1011 9.80503 17.2942 9.80503 17.5338ZM6.47823 16.0452C6.47823 15.8056 6.66645 15.6125 6.90356 15.6125C7.13577 15.6125 7.32888 15.8056 7.32888 16.0452C7.32888 16.2774 7.13577 16.4705 6.90356 16.4705C6.66401 16.4729 6.47823 16.2798 6.47823 16.0452ZM7.72731 16.7956C7.72731 16.556 7.91553 16.3703 8.15263 16.3703C8.38485 16.3703 8.57796 16.5585 8.57796 16.7956C8.57796 17.0278 8.38485 17.2209 8.15263 17.2209C7.91308 17.2209 7.72731 17.0278 7.72731 16.7956Z" fill="#F5F5F5"/>
</svg>
