<svg width="24" height="24" viewBox="0 0 24 24" fill="none" xmlns="http://www.w3.org/2000/svg">
<path d="M4.66635 16.6667H9.33247C9.69962 16.6667 9.99905 16.3672 9.99905 16.0001C9.99905 15.6329 9.69961 15.3334 9.33247 15.3334H4.66635C3.92947 15.3334 3.33318 14.737 3.33318 14V4.66668C3.33318 3.92971 3.92947 3.33334 4.66635 3.33334H16.9982C17.7351 3.33334 18.3314 3.92971 18.3314 4.66668V6.33335C18.3314 6.70055 18.6308 7.00002 18.998 7.00002C19.3651 7.00002 19.6646 6.70054 19.6646 6.33335V4.66668C19.6646 3.1966 18.4681 2 16.9982 2H4.66635C3.19646 2 2 3.1966 2 4.66668V14C2 15.4701 3.19646 16.6667 4.66635 16.6667Z" fill="black"/>
<path d="M2.66659 21.9998H9.33247C9.69962 21.9998 9.99905 21.7004 9.99905 21.3332C9.99905 20.966 9.69961 20.6665 9.33247 20.6665H2.66659C2.29943 20.6665 2 20.966 2 21.3332C2 21.7004 2.29944 21.9998 2.66659 21.9998Z" fill="black"/>
<path d="M19.334 10.333H16.3343C14.8644 10.333 13.668 11.5296 13.668 12.9997V19.333C13.668 20.8031 14.8644 21.9997 16.3343 21.9997H19.334C20.8039 21.9997 22.0003 20.8031 22.0003 19.333V12.9997C22.0003 11.5296 20.8039 10.333 19.334 10.333ZM20.6671 19.333C20.6671 20.057 20.0578 20.6664 19.334 20.6664H16.3343C15.6104 20.6664 15.0011 20.057 15.0011 19.333V12.9997C15.0011 12.2757 15.6104 11.6663 16.3343 11.6663H19.334C20.0578 11.6663 20.6671 12.2757 20.6671 12.9997V19.333Z" fill="black"/>
</svg>
