<svg width="25" height="24" viewBox="0 0 25 24" fill="none" xmlns="http://www.w3.org/2000/svg">
<path fill-rule="evenodd" clip-rule="evenodd" d="M8.56567 6.0256C6.71318 7.28671 5.5 9.41159 5.5 11.8167C5.5 15.6827 8.63401 18.8167 12.5 18.8167C14.9051 18.8167 17.0299 17.6035 18.2911 15.751C13.1817 15.1925 9.12421 11.1349 8.56567 6.0256ZM19.5 13.8167C20.366 13.8167 21.1118 14.5799 20.7691 15.3753C19.3898 18.576 16.2066 20.8167 12.5 20.8167C7.52944 20.8167 3.5 16.7872 3.5 11.8167C3.5 8.11009 5.74067 4.92685 8.9414 3.54758C9.73674 3.20485 10.5 3.95063 10.5 4.81667C10.5 9.78724 14.5294 13.8167 19.5 13.8167Z" fill="white"/>
</svg>
