<svg width="32" height="35" viewBox="0 0 32 35" fill="none" xmlns="http://www.w3.org/2000/svg">
<path d="M0.441406 3.69531H12.6765C19.8989 3.69531 24.4615 7.80831 24.4615 14.0699V14.1517C24.4615 21.1091 18.8759 24.7514 12.0627 24.7514H5.90423V34.7167H0.461867V3.69531H0.441406ZM12.2264 19.8404C16.3388 19.8404 18.9168 17.5281 18.9168 14.295V14.2131C18.9168 10.5708 16.2979 8.66775 12.2264 8.66775H5.88377V19.8404H12.2264Z" fill="#00CCED"/>
<path d="M30.8847 5.52493H25.9743V0.675269C25.9743 0.266016 25.7084 0 25.2992 0H22.9462C22.537 0 22.2711 0.266016 22.2711 0.675269V5.52493C19.8772 6.40482 18.1586 7.95999 17.0742 9.20821C17.1561 9.24914 17.2584 9.24914 17.3607 9.24914H22.2711V14.1602C22.2711 14.5694 22.537 14.8355 22.9462 14.8355H25.2992C25.7084 14.8355 25.9743 14.5694 25.9743 14.1602V9.24914H30.8847C31.2939 9.24914 31.5599 8.98312 31.5599 8.57387V6.22066C31.5599 5.8114 31.2939 5.54539 30.8847 5.54539V5.52493Z" fill="#333333"/>
</svg>
