<svg width="361" height="97" viewBox="0 0 361 97" fill="none" xmlns="http://www.w3.org/2000/svg">
<path d="M27.4033 10.7974C29.1971 10.7974 30.7251 11.4285 31.9874 12.6908C33.2497 13.9531 33.8808 15.4811 33.8808 17.2749C33.8808 19.0686 33.2497 20.5967 31.9874 21.859C30.7251 23.1212 29.1971 23.7524 27.4033 23.7524H23.5168V26.6423L20.9258 27.8714V10.7974H27.4033ZM23.5168 21.1614H27.4033C28.4663 21.1614 29.3964 20.796 30.1272 20.032C30.8912 19.268 31.2566 18.3378 31.2566 17.2749C31.2566 16.2119 30.8912 15.2818 30.1272 14.551C29.3632 13.787 28.4663 13.4216 27.4033 13.4216H23.5168V21.1946V21.1614Z" fill="#161616"/>
<path d="M37.5031 10.7979V27.9051H34.9121V10.7979H37.5031Z" fill="#161616"/>
<path d="M49.4246 23.72V14.4189H52.0156V27.9054H49.4246V27.374C48.3616 28.0715 47.1657 28.4037 45.8038 28.4037C44.4419 28.4037 42.3491 27.7394 41.0204 26.4439C39.6917 25.1151 39.0605 23.5539 39.0605 21.6605V14.4189H41.6515V21.6605C41.6515 22.8231 42.0502 23.7864 42.8806 24.5837C43.6778 25.3809 44.6744 25.8127 45.8038 25.8127C46.9332 25.8127 47.9298 25.4141 48.727 24.6169C49.0259 24.3179 49.2585 24.0189 49.4246 23.72Z" fill="#161616"/>
<path d="M54.8757 25.0821C56.0383 25.5804 57.1013 25.8129 58.0979 25.8129C59.0944 25.8129 59.792 25.6801 60.3235 25.4143C60.855 25.1486 61.0875 24.7832 61.0875 24.3513C61.0875 23.9195 60.9546 23.6538 60.6889 23.388C60.4231 23.1223 60.0909 22.923 59.6591 22.8233L56.8688 22.0925C55.7726 21.7936 54.9089 21.2953 54.311 20.5977C53.7131 19.9001 53.4141 19.0365 53.4141 18.0399C53.4141 17.0434 53.8792 15.9472 54.7761 15.15C55.6729 14.3527 56.8356 13.9541 58.2639 13.9209C60.1242 13.9209 61.8183 14.4524 63.3795 15.5486L61.6522 17.5084C60.5228 16.8441 59.3934 16.5119 58.2972 16.5119C57.5996 16.5119 57.0681 16.678 56.6363 16.977C56.2377 17.2759 56.0051 17.6413 56.0051 18.0731C56.0051 18.505 56.138 18.7707 56.437 19.0033C56.7359 19.2358 57.1013 19.4351 57.6328 19.6012L60.5228 20.3984C61.5193 20.6642 62.3165 21.1292 62.8813 21.8268C63.4792 22.5244 63.7781 23.388 63.7781 24.4178C63.7781 25.4475 63.3131 26.5105 62.383 27.2745C61.4529 28.0385 60.0245 28.4372 58.0979 28.4372C56.1712 28.4372 54.9089 28.0053 53.2812 27.1749L54.8757 25.1154V25.0821Z" fill="#161616"/>
<path d="M71.4834 10.7979C73.2771 10.7979 74.8052 11.429 76.0675 12.6913C77.3297 13.9536 77.9609 15.4816 77.9609 17.2754C77.9609 19.0691 77.3297 20.5972 76.0675 21.8594C74.8052 23.1217 73.2771 23.7529 71.4834 23.7529H67.5969V26.6428L65.0059 27.8719V10.7979H71.4834ZM67.5636 21.1619H71.4501C72.5131 21.1619 73.4432 20.7965 74.174 20.0325C74.938 19.2684 75.3034 18.3383 75.3034 17.2754C75.3034 16.2124 74.938 15.2823 74.174 14.5515C73.41 13.7875 72.5131 13.4221 71.4501 13.4221H67.5636V21.1951V21.1619Z" fill="#161616"/>
<path d="M89.3547 27.1407C88.1589 28.0043 86.7637 28.4362 85.2025 28.4362C83.6412 28.4362 81.482 27.7386 80.0869 26.3102C78.6585 24.8818 77.9609 23.1877 77.9609 21.1946C77.9609 19.2016 78.6585 17.4742 80.0869 16.0791C81.5153 14.6507 83.2094 13.9531 85.2025 13.9531C87.1955 13.9531 88.1589 14.385 89.3547 15.2486V14.4846H91.9457V27.9711H89.3547V27.2071V27.1407ZM89.3547 23.3206V19.0023C89.1222 18.6036 88.8564 18.205 88.491 17.8728C87.5942 16.976 86.4647 16.5109 85.2025 16.5109C83.9402 16.5109 82.8108 16.976 81.9139 17.8728C81.017 18.7697 80.5519 19.8991 80.5519 21.1614C80.5519 22.4237 81.017 23.5531 81.9139 24.45C82.8108 25.3469 83.9402 25.8119 85.2025 25.8119C86.4647 25.8119 87.5942 25.3469 88.491 24.45C88.8232 24.1178 89.1222 23.7192 89.3547 23.3206Z" fill="#161616"/>
<path d="M103.87 27.3735C102.807 28.0711 101.578 28.4032 100.249 28.4032C98.9204 28.4032 96.7944 27.7389 95.4657 26.4434C94.137 25.1147 93.5059 23.5534 93.5059 21.66V14.4185H96.0969V21.66C96.0969 22.8226 96.4955 23.7859 97.3259 24.5832C98.1564 25.3804 99.1197 25.8122 100.249 25.8122C101.379 25.8122 102.375 25.4136 103.206 24.5832C103.471 24.3174 103.704 24.0185 103.903 23.6863V14.3853H106.494V27.606C106.494 29.5327 105.797 31.1936 104.435 32.5555C103.073 33.9174 101.412 34.615 99.4851 34.615V32.024C100.714 32.024 101.744 31.5922 102.608 30.7285C103.471 29.8648 103.903 28.8351 103.903 27.606V27.3735H103.87Z" fill="#161616"/>
<path d="M20.8555 35.0806H40.7198C52.4458 35.0806 59.8534 41.7574 59.8534 51.9221V52.055C59.8534 63.3491 50.7849 69.2619 39.7233 69.2619H29.7247V85.439H20.8887V35.0806H20.8555ZM39.989 61.2896C46.6658 61.2896 50.8513 57.5359 50.8513 52.2875V52.1546C50.8513 46.2418 46.5994 43.1525 39.989 43.1525H29.6915V61.2896H39.989Z" fill="#00CCED"/>
<path d="M78.09 34.748H86.2949L108.451 85.4719H99.0838L93.9682 73.3141H70.1509L64.9689 85.4719H55.9004L78.0568 34.748H78.09ZM90.7461 65.4415L82.0429 45.3114L73.4063 65.4415H90.7461Z" fill="#00CCED"/>
<path d="M113.504 35.0801H135.959C142.304 35.0801 147.253 36.9403 150.476 40.1292C153.133 42.8531 154.661 46.6067 154.661 50.9915V51.1244C154.661 59.3956 149.712 64.3451 142.636 66.3714L156.222 85.4386H145.792L133.435 67.8995H122.373V85.4386H113.537V35.0801H113.504ZM135.295 60.06C141.64 60.06 145.659 56.7382 145.659 51.6559V51.523C145.659 46.1417 141.772 43.1853 135.228 43.1853H122.34V60.0932H135.295V60.06Z" fill="#00CCED"/>
<path d="M174.06 43.2854H158.082V35.0806H198.94V43.2854H182.962V85.439H174.027V43.2854H174.06Z" fill="#00CCED"/>
<path d="M204.717 35.0806H212.922L239.895 69.893V35.0806H248.598V85.439H241.19L213.42 49.63V85.439H204.717V35.0806Z" fill="#00CCED"/>
<path d="M257.936 35.0806H295.273V42.9865H266.772V56.0743H292.017V63.9802H266.772V77.5H295.605V85.4058H257.902V35.0806H257.936Z" fill="#00CCED"/>
<path d="M353.537 38.8668H345.565V30.9941C345.565 30.3298 345.133 29.8979 344.469 29.8979H340.649C339.984 29.8979 339.553 30.3298 339.553 30.9941V38.8668C335.666 40.2952 332.876 42.8197 331.115 44.846C331.248 44.9125 331.414 44.9125 331.58 44.9125H339.553V52.8848C339.553 53.5492 339.984 53.981 340.649 53.981H344.469C345.133 53.981 345.565 53.5492 345.565 52.8848V44.9125H353.537C354.202 44.9125 354.634 44.4806 354.634 43.8163V39.9962C354.634 39.3319 354.202 38.9 353.537 38.9V38.8668Z" fill="#161616"/>
<path d="M343.204 55.3435H339.184C338.487 55.3435 337.955 54.7788 337.955 54.1145V46.4079H333.039C334.102 47.7366 334.7 49.4307 334.7 51.5235V51.6563C334.7 56.7719 330.681 60.0605 324.336 60.0605H311.381V43.1525H324.269C326.562 43.1525 328.555 43.5179 330.149 44.2155C331.744 41.0266 335.63 39.0335 337.291 38.3359C334.168 36.2764 330.016 35.0806 325 35.0806H302.545V85.439H311.381V67.8999H322.443L334.8 85.439H345.23L331.644 66.3719C337.391 64.711 341.775 61.1235 343.171 55.3435H343.204Z" fill="#00CCED"/>
</svg>
