<svg width="360" height="96" viewBox="0 0 360 96" fill="none" xmlns="http://www.w3.org/2000/svg">
<path d="M26.6845 10.2974C28.4783 10.2974 30.0063 10.9285 31.2686 12.1908C32.5309 13.4531 33.162 14.9811 33.162 16.7749C33.162 18.5686 32.5309 20.0967 31.2686 21.359C30.0063 22.6212 28.4783 23.2524 26.6845 23.2524H22.798V26.1423L20.207 27.3714V10.2974H26.6845ZM22.798 20.6614H26.6845C27.7475 20.6614 28.6776 20.296 29.4084 19.532C30.1724 18.768 30.5378 17.8378 30.5378 16.7749C30.5378 15.7119 30.1724 14.7818 29.4084 14.051C28.6444 13.287 27.7475 12.9216 26.6845 12.9216H22.798V20.6946V20.6614Z" fill="white"/>
<path d="M36.7844 10.2979V27.4051H34.1934V10.2979H36.7844Z" fill="white"/>
<path d="M48.7058 23.22V13.9189H51.2968V27.4054H48.7058V26.874C47.6428 27.5715 46.447 27.9037 45.085 27.9037C43.7231 27.9037 41.6304 27.2394 40.3017 25.9439C38.9729 24.6151 38.3418 23.0539 38.3418 21.1605V13.9189H40.9328V21.1605C40.9328 22.3231 41.3314 23.2864 42.1619 24.0837C42.9591 24.8809 43.9556 25.3127 45.085 25.3127C46.2145 25.3127 47.211 24.9141 48.0082 24.1169C48.3072 23.8179 48.5397 23.5189 48.7058 23.22Z" fill="white"/>
<path d="M54.157 24.5821C55.3196 25.0804 56.3826 25.3129 57.3791 25.3129C58.3756 25.3129 59.0732 25.1801 59.6047 24.9143C60.1362 24.6486 60.3687 24.2832 60.3687 23.8513C60.3687 23.4195 60.2359 23.1538 59.9701 22.888C59.7044 22.6223 59.3722 22.423 58.9404 22.3233L56.15 21.5925C55.0539 21.2936 54.1902 20.7953 53.5923 20.0977C52.9943 19.4001 52.6954 18.5365 52.6954 17.5399C52.6954 16.5434 53.1604 15.4472 54.0573 14.65C54.9542 13.8527 56.1168 13.4541 57.5452 13.4209C59.4054 13.4209 61.0995 13.9524 62.6608 15.0486L60.9334 17.0084C59.804 16.3441 58.6746 16.0119 57.5784 16.0119C56.8808 16.0119 56.3494 16.178 55.9175 16.477C55.5189 16.7759 55.2864 17.1413 55.2864 17.5731C55.2864 18.005 55.4192 18.2707 55.7182 18.5033C56.0172 18.7358 56.3826 18.9351 56.9141 19.1012L59.804 19.8984C60.8006 20.1642 61.5978 20.6292 62.1625 21.3268C62.7604 22.0244 63.0594 22.888 63.0594 23.9178C63.0594 24.9475 62.5943 26.0105 61.6642 26.7745C60.7341 27.5385 59.3058 27.9372 57.3791 27.9372C55.4525 27.9372 54.1902 27.5053 52.5625 26.6749L54.157 24.6154V24.5821Z" fill="white"/>
<path d="M70.7646 10.2979C72.5584 10.2979 74.0864 10.929 75.3487 12.1913C76.611 13.4536 77.2421 14.9816 77.2421 16.7754C77.2421 18.5691 76.611 20.0972 75.3487 21.3594C74.0864 22.6217 72.5584 23.2529 70.7646 23.2529H66.8781V26.1428L64.2871 27.3719V10.2979H70.7646ZM66.8449 20.6619H70.7314C71.7944 20.6619 72.7245 20.2965 73.4553 19.5325C74.2193 18.7684 74.5847 17.8383 74.5847 16.7754C74.5847 15.7124 74.2193 14.7823 73.4553 14.0515C72.6913 13.2875 71.7944 12.9221 70.7314 12.9221H66.8449V20.6951V20.6619Z" fill="white"/>
<path d="M88.636 26.6407C87.4401 27.5043 86.045 27.9362 84.4837 27.9362C82.9225 27.9362 80.7633 27.2386 79.3681 25.8102C77.9398 24.3818 77.2422 22.6877 77.2422 20.6946C77.2422 18.7016 77.9398 16.9742 79.3681 15.5791C80.7965 14.1507 82.4906 13.4531 84.4837 13.4531C86.4768 13.4531 87.4401 13.885 88.636 14.7486V13.9846H91.227V27.4711H88.636V26.7071V26.6407ZM88.636 22.8206V18.5023C88.4034 18.1036 88.1377 17.705 87.7723 17.3728C86.8754 16.476 85.746 16.0109 84.4837 16.0109C83.2214 16.0109 82.092 16.476 81.1951 17.3728C80.2982 18.2697 79.8332 19.3991 79.8332 20.6614C79.8332 21.9237 80.2982 23.0531 81.1951 23.95C82.092 24.8469 83.2214 25.3119 84.4837 25.3119C85.746 25.3119 86.8754 24.8469 87.7723 23.95C88.1045 23.6178 88.4034 23.2192 88.636 22.8206Z" fill="white"/>
<path d="M103.151 26.8735C102.088 27.5711 100.859 27.9032 99.5304 27.9032C98.2016 27.9032 96.0757 27.2389 94.747 25.9434C93.4183 24.6147 92.7871 23.0534 92.7871 21.16V13.9185H95.3781V21.16C95.3781 22.3226 95.7767 23.2859 96.6072 24.0832C97.4376 24.8804 98.401 25.3122 99.5304 25.3122C100.66 25.3122 101.656 24.9136 102.487 24.0832C102.753 23.8174 102.985 23.5185 103.184 23.1863V13.8853H105.775V27.106C105.775 29.0327 105.078 30.6936 103.716 32.0555C102.354 33.4174 100.693 34.115 98.7663 34.115V31.524C99.9954 31.524 101.025 31.0922 101.889 30.2285C102.753 29.3648 103.184 28.3351 103.184 27.106V26.8735H103.151Z" fill="white"/>
<path d="M20.1367 34.5806H40.0011C51.727 34.5806 59.1346 41.2574 59.1346 51.4221V51.555C59.1346 62.8491 50.0661 68.7619 39.0045 68.7619H29.0059V84.939H20.1699V34.5806H20.1367ZM39.2703 60.7896C45.9471 60.7896 50.1326 57.0359 50.1326 51.7875V51.6546C50.1326 45.7418 45.8807 42.6525 39.2703 42.6525H28.9727V60.7896H39.2703Z" fill="#20C3E0"/>
<path d="M77.3713 34.248H85.5761L107.732 84.9719H98.365L93.2495 72.8141H69.4322L64.2501 84.9719H55.1816L77.338 34.248H77.3713ZM90.0273 64.9415L81.3242 44.8114L72.6875 64.9415H90.0273Z" fill="#20C3E0"/>
<path d="M112.785 34.5801H135.241C141.585 34.5801 146.535 36.4403 149.757 39.6292C152.414 42.3531 153.942 46.1067 153.942 50.4915V50.6244C153.942 58.8956 148.993 63.8451 141.917 65.8714L155.503 84.9386H145.073L132.716 67.3995H121.654V84.9386H112.818V34.5801H112.785ZM134.576 59.56C140.921 59.56 144.94 56.2382 144.94 51.1559V51.023C144.94 45.6417 141.054 42.6853 134.51 42.6853H121.621V59.5932H134.576V59.56Z" fill="#20C3E0"/>
<path d="M173.341 42.7854H157.363V34.5806H198.221V42.7854H182.244V84.939H173.308V42.7854H173.341Z" fill="#20C3E0"/>
<path d="M203.998 34.5806H212.203L239.176 69.393V34.5806H247.879V84.939H240.471L212.701 49.13V84.939H203.998V34.5806Z" fill="#20C3E0"/>
<path d="M257.217 34.5806H294.554V42.4865H266.053V55.5743H291.298V63.4802H266.053V77H294.886V84.9058H257.184V34.5806H257.217Z" fill="#20C3E0"/>
<path d="M352.819 38.3668H344.846V30.4941C344.846 29.8298 344.415 29.3979 343.75 29.3979H339.93C339.266 29.3979 338.834 29.8298 338.834 30.4941V38.3668C334.947 39.7952 332.157 42.3197 330.396 44.346C330.529 44.4125 330.695 44.4125 330.862 44.4125H338.834V52.3848C338.834 53.0492 339.266 53.481 339.93 53.481H343.75C344.415 53.481 344.846 53.0492 344.846 52.3848V44.4125H352.819C353.483 44.4125 353.915 43.9806 353.915 43.3163V39.4962C353.915 38.8319 353.483 38.4 352.819 38.4V38.3668Z" fill="white"/>
<path d="M342.485 54.8435H338.466C337.768 54.8435 337.237 54.2788 337.237 53.6145V45.9079H332.32C333.383 47.2366 333.981 48.9307 333.981 51.0235V51.1563C333.981 56.2719 329.962 59.5605 323.617 59.5605H310.662V42.6525H323.551C325.843 42.6525 327.836 43.0179 329.43 43.7155C331.025 40.5266 334.911 38.5335 336.572 37.8359C333.45 35.7764 329.297 34.5806 324.282 34.5806H301.826V84.939H310.662V67.3999H321.724L334.081 84.939H344.511L330.925 65.8719C336.672 64.211 341.057 60.6235 342.452 54.8435H342.485Z" fill="#20C3E0"/>
</svg>
